<svg viewBox="0 0 106 22" version="1.1" xmlns="http://www.w3.org/2000/svg" xmlns:xlink="http://www.w3.org/1999/xlink">
    <g stroke="none" stroke-width="1" fill="none" fill-rule="evenodd">
        <g id="Farger_kontraster-og-gradients" transform="translate(-276.000000, -1008.000000)">
            <g id="Group-2" transform="translate(276.000000, 1003.868194)">
                <g id="Group" transform="translate(0.000000, 1.004458)">
                    <g id="Leaf" transform="translate(42.054452, 8.486326) scale(-1, 1) rotate(112.000000) translate(-42.054452, -8.486326) translate(36.554452, 1.486326)" fill="#000000">
                        <path d="M6.74900069,0.477481924 C6.85269692,0.790597913 6.93328197,1.10999852 6.98538349,1.42250632 C7.19358688,2.67162524 6.22146054,5.71111314 5.94980277,6.64519013 C5.84671473,2.48446756 0.629669164,3.97574708 0.675891531,7.1518116 C0.711977414,9.643258 2.96775056,10.3349717 2.96166866,12.0594917 C2.95710725,13.3336477 1.60753577,13.3902093 3.34918645,13.3649694 C5.09073576,13.3396282 10.3244052,11.661736 10.2766623,8.372447 C10.2289195,5.08356341 7.18959613,5.77223613 6.12273119,6.60413737 C6.61546567,5.6169452 7.9335502,2.45115672 7.65337779,0.840773509 C7.6196233,0.637942465 7.57735416,0.445856094 7.52920586,0.262183004 C7.52920586,0.262183004 6.74900069,0.477481924 6.74900069,0.477481924 Z" id="Fill-1"></path>
                    </g>
                    <g id="Leaf" transform="translate(16.281134, 19.356481) scale(-1, -1) rotate(113.000000) translate(-16.281134, -19.356481) translate(11.281134, 12.856481)" fill="#000000">
                        <path d="M6.65502899,0.837032435 C6.75872522,1.15014842 6.83931027,1.46954903 6.8914118,1.78205684 C7.09961518,3.03117575 5.75956125,5.15960433 5.48790348,6.09368133 C5.38481544,1.93295875 0.167769872,3.42423827 0.213992239,6.60030279 C0.250078122,9.09174919 2.50585126,9.78346285 2.49976937,11.5079829 C2.49520796,12.7821389 1.14563648,12.8387005 2.88728716,12.8134606 C4.62883647,12.7881194 9.86250587,11.1102272 9.81476303,7.82093819 C9.76702019,4.53205461 6.72769683,5.22072733 5.6608319,6.05262857 C6.15356638,5.06543639 7.83957851,2.81070723 7.55940609,1.20032402 C7.5256516,0.997492976 7.48338246,0.805406605 7.43523416,0.621733516 C7.43523416,0.621733516 6.65502899,0.837032435 6.65502899,0.837032435 Z" id="Fill-1"></path>
                    </g>
                    <path d="M0,20.8726526 C7.99852021,20.8726526 15.4919263,8.96431074 26.4761021,8.96431074 C36.8451131,8.96431074 42.8050335,20.8726526 52.9522041,20.8726526" id="Path-5" stroke="#000000" stroke-width="0.8"></path>
                    <path d="M21.0548992,5.89501563 C21.1585954,6.20813162 21.2391804,6.52753223 21.291282,6.84004003 C21.4994853,8.08915895 20.1594314,10.2175875 19.8877736,11.1516645 C19.8431241,11.3809196 19.9517177,11.3048815 20.0607021,11.1106118 C20.5534365,10.1234196 22.2394487,7.86869043 21.9592763,6.25830722 C21.9255218,6.05547617 21.8832526,5.8633898 21.8351043,5.67971671 C21.8351043,5.67971671 21.0548992,5.89501563 21.0548992,5.89501563 Z" id="Fill-1" fill="#000000" transform="translate(20.933978, 8.486326) scale(-1, 1) rotate(131.000000) translate(-20.933978, -8.486326) "></path>
                    <path d="M46.6723607,18.7473471 C46.7574088,19.0041543 46.8235019,19.2661159 46.8662339,19.5224243 C47.0369952,20.5469094 45.9379283,22.2925747 45.7151237,23.0586731 C45.6785037,23.2467003 45.7675685,23.1843364 45.8569538,23.025003 C46.261078,22.2153413 47.6438882,20.3660886 47.4141002,19.0453066 C47.3864159,18.8789515 47.3517482,18.7214087 47.3122586,18.5707662 C47.3122586,18.5707662 46.6723607,18.7473471 46.6723607,18.7473471 Z" id="Fill-1" fill="#000000" transform="translate(46.573185, 20.872653) rotate(325.000000) translate(-46.573185, -20.872653) "></path>
                </g>
                <g id="Group" transform="translate(53.000000, 0.000000)">
                    <g id="Leaf" transform="translate(41.965467, 10.600813) scale(-1, 1) rotate(112.000000) translate(-41.965467, -10.600813) translate(34.465467, 2.100813)" fill="#000000">
                        <path d="M8.38162169,2.565037 C8.48531793,2.87815299 8.56590297,3.1975536 8.6180045,3.5100614 C8.82620788,4.75918032 7.85408155,7.79866821 7.58242378,8.73274521 C7.47933574,4.57202264 2.26229017,6.06330216 2.30851254,9.23936668 C2.34459842,11.7308131 4.60037156,12.4225267 4.59428967,14.1470468 C4.58972825,15.4212028 3.24015678,15.4777644 4.98180745,15.4525245 C6.72335676,15.4271833 11.9570262,13.7492911 11.9092833,10.4600021 C11.8615405,7.17111849 8.82221713,7.85979121 7.75535219,8.69169245 C8.24808668,7.70450028 9.56617121,4.53871179 9.28599879,2.92832858 C9.2522443,2.72549754 9.20997516,2.53341117 9.16182686,2.34973808 C9.16182686,2.34973808 8.38162169,2.565037 8.38162169,2.565037 Z" id="Fill-1" transform="translate(7.108908, 8.903134) scale(-1, 1) rotate(-24.000000) translate(-7.108908, -8.903134) "></path>
                    </g>
                    <g id="Leaf" transform="translate(18.443354, 19.101568) scale(-1, -1) rotate(113.000000) translate(-18.443354, -19.101568) translate(10.443354, 11.101568)" fill="#000000">
                        <path d="M9.84310136,2.01709058 C9.94679759,2.33020657 10.0273826,2.64960718 10.0794842,2.96211498 C10.2876875,4.21123389 8.94763362,6.33966247 8.67597585,7.27373947 C8.57288781,3.11301689 3.35584224,4.60429641 3.40206461,7.78036094 C3.43815049,10.2718073 5.69392363,10.963521 5.68784174,12.688041 C5.68328032,13.962197 4.33370885,14.0187586 6.07535952,13.9935188 C7.81690883,13.9681776 13.0505782,12.2902854 13.0028354,9.00099633 C12.9550926,5.71211275 9.9157692,6.40078547 8.84890426,7.23268671 C9.34163875,6.24549453 11.0276509,3.99076537 10.7474785,2.38038216 C10.713724,2.17755112 10.6714548,1.98546475 10.6233065,1.80179166 C10.6233065,1.80179166 9.84310136,2.01709058 9.84310136,2.01709058 Z" id="Fill-1" transform="translate(8.202460, 7.899658) scale(-1, 1) rotate(-32.000000) translate(-8.202460, -7.899658) "></path>
                    </g>
                    <path d="M0,21.8726526 C7.99852021,21.8726526 15.4919263,9.96431074 26.4761021,9.96431074 C36.8451131,9.96431074 42.8050335,21.8726526 52.9522041,21.8726526" id="Path-5" stroke="#000000" stroke-width="0.8"></path>
                </g>
            </g>
        </g>
    </g>
</svg>